<svg width="180" height="180" viewBox="0 0 180 180" fill="none" xmlns="http://www.w3.org/2000/svg">
  <rect width="180" height="180" rx="40" fill="url(#gradient)"/>
  <circle cx="90" cy="67.5" r="22.5" fill="white" opacity="0.9"/>
  <path d="M90 90C76.31 90 65 101.61 65 116V126C65 129.31 67.69 132 71 132H109C112.31 132 115 129.31 115 126V116C115 101.61 103.69 90 90 90Z" fill="white" opacity="0.8"/>
  <circle cx="135" cy="45" r="18" fill="#FFD700" opacity="0.9"/>
  <path d="M135 33L142.5 45L154.5 45L145.5 54L148.5 69L135 62L121.5 69L124.5 54L115.5 45L127.5 45L135 33Z" fill="white"/>
  <defs>
    <linearGradient id="gradient" x1="0" y1="0" x2="180" y2="180" gradientUnits="userSpaceOnUse">
      <stop stop-color="#FF69B4"/>
      <stop offset="0.5" stop-color="#EC4899"/>
      <stop offset="1" stop-color="#BE185D"/>
    </linearGradient>
  </defs>
</svg>