<svg width="32" height="32" viewBox="0 0 32 32" fill="none" xmlns="http://www.w3.org/2000/svg">
  <rect width="32" height="32" rx="8" fill="url(#gradient)"/>
  <circle cx="16" cy="12" r="5" fill="white" opacity="0.9"/>
  <path d="M16 17C12.69 17 10 19.24 10 22V24C10 24.55 10.45 25 11 25H21C21.55 25 22 24.55 22 24V22C22 19.24 19.31 17 16 17Z" fill="white" opacity="0.8"/>
  <circle cx="24" cy="8" r="4" fill="#FFD700" opacity="0.9"/>
  <path d="M24 6L25 8L27 8L25.5 9.5L26 12L24 11L22 12L22.5 9.5L21 8L23 8L24 6Z" fill="white"/>
  <defs>
    <linearGradient id="gradient" x1="0" y1="0" x2="32" y2="32" gradientUnits="userSpaceOnUse">
      <stop stop-color="#FF69B4"/>
      <stop offset="0.5" stop-color="#EC4899"/>
      <stop offset="1" stop-color="#BE185D"/>
    </linearGradient>
  </defs>
</svg>