<svg width="512" height="512" viewBox="0 0 512 512" fill="none" xmlns="http://www.w3.org/2000/svg">
  <rect width="512" height="512" rx="128" fill="url(#gradient)"/>
  <circle cx="256" cy="192" r="80" fill="white" opacity="0.9"/>
  <path d="M256 272C202.94 272 160 298.15 160 352V384C160 392.84 167.16 400 176 400H336C344.84 400 352 392.84 352 384V352C352 298.15 309.06 272 256 272Z" fill="white" opacity="0.8"/>
  <circle cx="384" cy="128" r="64" fill="#FFD700" opacity="0.9"/>
  <path d="M384 96L400 128L432 128L408 152L416 192L384 176L352 192L360 152L336 128L368 128L384 96Z" fill="white"/>
  <defs>
    <linearGradient id="gradient" x1="0" y1="0" x2="512" y2="512" gradientUnits="userSpaceOnUse">
      <stop stop-color="#FF69B4"/>
      <stop offset="0.5" stop-color="#EC4899"/>
      <stop offset="1" stop-color="#BE185D"/>
    </linearGradient>
  </defs>
</svg>